<mxfile host="app.diagrams.net" modified="2021-02-16T03:52:30.694Z" agent="5.0 (Windows NT 10.0; Win64; x64) AppleWebKit/537.36 (KHTML, like Gecko) Chrome/88.0.4324.150 Safari/537.36" etag="b01T0qRHTLOqRvMFVoL3" version="14.3.2" type="github">
  <diagram id="97ScS4OafS-AO9zeD5bM" name="Page-1">
    <mxGraphModel dx="723" dy="402" grid="1" gridSize="10" guides="1" tooltips="1" connect="1" arrows="1" fold="1" page="1" pageScale="1" pageWidth="827" pageHeight="1169" math="0" shadow="0">
      <root>
        <mxCell id="0" />
        <mxCell id="1" parent="0" />
        <mxCell id="EUROxXfzbm8XMdAwXbnD-1" value="System &lt;br&gt;e-Rapor" style="ellipse;whiteSpace=wrap;html=1;aspect=fixed;" vertex="1" parent="1">
          <mxGeometry x="360" y="200" width="80" height="80" as="geometry" />
        </mxCell>
        <mxCell id="EUROxXfzbm8XMdAwXbnD-2" value="Admin" style="rounded=0;whiteSpace=wrap;html=1;" vertex="1" parent="1">
          <mxGeometry x="200" y="160" width="120" height="40" as="geometry" />
        </mxCell>
        <mxCell id="EUROxXfzbm8XMdAwXbnD-4" value="Guru" style="rounded=0;whiteSpace=wrap;html=1;" vertex="1" parent="1">
          <mxGeometry x="200" y="280" width="120" height="40" as="geometry" />
        </mxCell>
        <mxCell id="EUROxXfzbm8XMdAwXbnD-6" value="Wali Kelas" style="rounded=0;whiteSpace=wrap;html=1;" vertex="1" parent="1">
          <mxGeometry x="480" y="160" width="120" height="40" as="geometry" />
        </mxCell>
        <mxCell id="EUROxXfzbm8XMdAwXbnD-8" value="Siswa" style="rounded=0;whiteSpace=wrap;html=1;" vertex="1" parent="1">
          <mxGeometry x="480" y="280" width="120" height="40" as="geometry" />
        </mxCell>
        <mxCell id="EUROxXfzbm8XMdAwXbnD-10" value="" style="endArrow=classic;html=1;exitX=0.648;exitY=0.983;exitDx=0;exitDy=0;entryX=0;entryY=0.5;entryDx=0;entryDy=0;exitPerimeter=0;" edge="1" parent="1" source="EUROxXfzbm8XMdAwXbnD-1" target="EUROxXfzbm8XMdAwXbnD-8">
          <mxGeometry width="50" height="50" relative="1" as="geometry">
            <mxPoint x="380" y="277" as="sourcePoint" />
            <mxPoint x="440" y="230" as="targetPoint" />
            <Array as="points">
              <mxPoint x="412" y="300" />
            </Array>
          </mxGeometry>
        </mxCell>
        <mxCell id="EUROxXfzbm8XMdAwXbnD-11" value="" style="endArrow=classic;html=1;entryX=1;entryY=0.5;entryDx=0;entryDy=0;" edge="1" parent="1" target="EUROxXfzbm8XMdAwXbnD-2">
          <mxGeometry width="50" height="50" relative="1" as="geometry">
            <mxPoint x="389" y="202" as="sourcePoint" />
            <mxPoint x="450" y="230" as="targetPoint" />
            <Array as="points">
              <mxPoint x="389" y="180" />
            </Array>
          </mxGeometry>
        </mxCell>
        <mxCell id="EUROxXfzbm8XMdAwXbnD-12" value="" style="endArrow=classic;html=1;exitX=0.5;exitY=1;exitDx=0;exitDy=0;entryX=0.971;entryY=0.342;entryDx=0;entryDy=0;entryPerimeter=0;" edge="1" parent="1" source="EUROxXfzbm8XMdAwXbnD-6" target="EUROxXfzbm8XMdAwXbnD-1">
          <mxGeometry width="50" height="50" relative="1" as="geometry">
            <mxPoint x="319.99999999999994" y="200.00000000000003" as="sourcePoint" />
            <mxPoint x="450" y="240" as="targetPoint" />
            <Array as="points">
              <mxPoint x="540" y="227" />
            </Array>
          </mxGeometry>
        </mxCell>
        <mxCell id="EUROxXfzbm8XMdAwXbnD-22" value="" style="endArrow=classic;html=1;exitX=0.35;exitY=0.978;exitDx=0;exitDy=0;entryX=1;entryY=0.5;entryDx=0;entryDy=0;exitPerimeter=0;" edge="1" parent="1" source="EUROxXfzbm8XMdAwXbnD-1" target="EUROxXfzbm8XMdAwXbnD-4">
          <mxGeometry width="50" height="50" relative="1" as="geometry">
            <mxPoint x="420" y="390" as="sourcePoint" />
            <mxPoint x="470" y="340" as="targetPoint" />
            <Array as="points">
              <mxPoint x="388" y="300" />
            </Array>
          </mxGeometry>
        </mxCell>
        <mxCell id="EUROxXfzbm8XMdAwXbnD-23" value="" style="endArrow=classic;html=1;entryX=0.046;entryY=0.696;entryDx=0;entryDy=0;exitX=0.5;exitY=0;exitDx=0;exitDy=0;entryPerimeter=0;" edge="1" parent="1" source="EUROxXfzbm8XMdAwXbnD-4" target="EUROxXfzbm8XMdAwXbnD-1">
          <mxGeometry width="50" height="50" relative="1" as="geometry">
            <mxPoint x="420" y="390" as="sourcePoint" />
            <mxPoint x="383" y="277" as="targetPoint" />
            <Array as="points">
              <mxPoint x="260" y="256" />
            </Array>
          </mxGeometry>
        </mxCell>
        <mxCell id="EUROxXfzbm8XMdAwXbnD-24" value="" style="endArrow=classic;html=1;entryX=0.962;entryY=0.708;entryDx=0;entryDy=0;exitX=0.5;exitY=0;exitDx=0;exitDy=0;entryPerimeter=0;" edge="1" parent="1" source="EUROxXfzbm8XMdAwXbnD-8" target="EUROxXfzbm8XMdAwXbnD-1">
          <mxGeometry width="50" height="50" relative="1" as="geometry">
            <mxPoint x="480" y="310" as="sourcePoint" />
            <mxPoint x="470" y="340" as="targetPoint" />
            <Array as="points">
              <mxPoint x="540" y="257" />
            </Array>
          </mxGeometry>
        </mxCell>
        <mxCell id="EUROxXfzbm8XMdAwXbnD-25" value="" style="endArrow=classic;html=1;exitX=0.5;exitY=1;exitDx=0;exitDy=0;entryX=0.048;entryY=0.303;entryDx=0;entryDy=0;entryPerimeter=0;" edge="1" parent="1" source="EUROxXfzbm8XMdAwXbnD-2" target="EUROxXfzbm8XMdAwXbnD-1">
          <mxGeometry width="50" height="50" relative="1" as="geometry">
            <mxPoint x="260" y="201" as="sourcePoint" />
            <mxPoint x="380" y="260" as="targetPoint" />
            <Array as="points">
              <mxPoint x="260" y="224" />
            </Array>
          </mxGeometry>
        </mxCell>
        <mxCell id="EUROxXfzbm8XMdAwXbnD-26" value="" style="endArrow=classic;html=1;entryX=0;entryY=0.5;entryDx=0;entryDy=0;exitX=0.625;exitY=0.021;exitDx=0;exitDy=0;exitPerimeter=0;" edge="1" parent="1" source="EUROxXfzbm8XMdAwXbnD-1" target="EUROxXfzbm8XMdAwXbnD-6">
          <mxGeometry width="50" height="50" relative="1" as="geometry">
            <mxPoint x="410" y="200" as="sourcePoint" />
            <mxPoint x="450" y="190" as="targetPoint" />
            <Array as="points">
              <mxPoint x="410" y="180" />
            </Array>
          </mxGeometry>
        </mxCell>
      </root>
    </mxGraphModel>
  </diagram>
</mxfile>
